<?xml version="1.0" encoding="UTF-8" standalone="no"?>
<svg width="32px" height="32px" viewBox="0 0 32 32" version="1.1" xmlns="http://www.w3.org/2000/svg" xmlns:xlink="http://www.w3.org/1999/xlink">
    <!-- Generator: Sketch 3.8.3 (29802) - http://www.bohemiancoding.com/sketch -->
    <title>Group 4</title>
    <desc>Created with Sketch.</desc>
    <defs></defs>
    <g id="Page-1" stroke="none" stroke-width="1" fill="none" fill-rule="evenodd">
        <g id="Group" transform="translate(-313.000000, -416.000000)" fill="#444444">
            <g id="Group-4" transform="translate(313.000000, 416.000000)">
                <path d="M13.1634,16.4409 L10.2754,16.4409 L10.2754,19.0929 L13.0304,19.0929 C13.4444,19.0809 14.2094,18.9509 14.2094,17.8039 C14.2094,16.4269 13.1634,16.4409 13.1634,16.4409" id="Fill-198"></path>
                <path d="M20.5582,14.9114 C19.0252,14.9114 18.8122,16.4414 18.8122,16.4414 L22.0712,16.4414 C22.0712,16.4414 22.0912,14.9114 20.5582,14.9114" id="Fill-199"></path>
                <path d="M13.8653,13.7293 C13.8653,12.6973 13.1633,12.6973 13.1633,12.6973 L12.7913,12.6973 L10.2753,12.6973 L10.2753,14.9113 L12.9843,14.9113 C13.4523,14.9113 13.8653,14.7613 13.8653,13.7293" id="Fill-200"></path>
                <path d="M23.9731,17.7654 L18.8311,17.7654 C18.8311,19.6084 20.5781,19.4924 20.5781,19.4924 C22.2271,19.4924 22.1691,18.4254 22.1691,18.4254 L23.9151,18.4254 C23.9151,21.2574 20.5191,21.0634 20.5191,21.0634 C16.4451,21.0634 16.7071,17.2704 16.7071,17.2704 C16.7071,17.2704 16.7031,13.4584 20.5191,13.4584 C24.5351,13.4584 23.9731,17.7654 23.9731,17.7654 L23.9731,17.7654 Z M16.3151,17.9274 C16.3151,20.9554 13.1631,20.8564 13.1631,20.8564 L10.2751,20.8564 L10.1901,20.8564 L8.0001,20.8564 L8.0001,10.9334 L10.1901,10.9334 L10.2751,10.9334 L13.1631,10.9334 C14.7321,10.9334 15.9711,11.8004 15.9711,13.5754 C15.9711,15.3514 14.4571,15.4634 14.4571,15.4634 C16.4531,15.4634 16.3151,17.9274 16.3151,17.9274 L16.3151,17.9274 Z M18.3851,11.5184 L22.4791,11.5184 L22.4791,12.7404 L18.3851,12.7404 L18.3851,11.5184 Z M16.0001,0.0004 C7.1631,0.0004 0.0001,7.1634 0.0001,16.0004 C0.0001,24.8364 7.1631,32.0004 16.0001,32.0004 C24.8371,32.0004 32.0001,24.8364 32.0001,16.0004 C32.0001,7.1634 24.8371,0.0004 16.0001,0.0004 L16.0001,0.0004 Z" id="Fill-201"></path>
            </g>
        </g>
    </g>
</svg>