<?xml version="1.0" encoding="UTF-8" standalone="no"?>
<svg width="32px" height="32px" viewBox="0 0 32 32" version="1.1" xmlns="http://www.w3.org/2000/svg" xmlns:xlink="http://www.w3.org/1999/xlink">
    <!-- Generator: Sketch 3.8.3 (29802) - http://www.bohemiancoding.com/sketch -->
    <title>Fill 210</title>
    <desc>Created with Sketch.</desc>
    <defs></defs>
    <g id="Page-1" stroke="none" stroke-width="1" fill="none" fill-rule="evenodd">
        <g id="Group" transform="translate(-209.000000, -468.000000)" fill="#444444">
            <path d="M227.2743,490.385 C227.2743,490.385 226.1923,490.516 225.0003,490.516 C223.8083,490.516 222.7123,490.395 222.7123,490.395 C219.9273,490.078 217.0003,489.002 217.0003,484.197 C217.0003,482.828 217.4883,481.709 218.2903,480.832 C218.1623,480.515 217.7313,479.24 218.4133,477.513 C218.4133,477.513 219.4663,477.176 221.8623,478.799 C222.8623,478.521 223.9353,478.382 225.0013,478.377 C226.0663,478.382 227.1393,478.521 228.1413,478.799 C230.5353,477.176 231.5863,477.513 231.5863,477.513 C232.2703,479.24 231.8403,480.515 231.7113,480.832 C232.5143,481.709 233.0003,482.828 233.0003,484.197 C233.0003,489.014 230.0683,490.075 227.2743,490.385 M225.0003,468 C216.1633,468 209.0003,475.163 209.0003,484 C209.0003,492.836 216.1633,500 225.0003,500 C233.8363,500 241.0003,492.836 241.0003,484 C241.0003,475.163 233.8363,468 225.0003,468" id="Fill-210"></path>
        </g>
    </g>
</svg>