<?xml version="1.0" encoding="UTF-8" standalone="no"?>
<svg width="32px" height="32px" viewBox="0 0 32 32" version="1.1" xmlns="http://www.w3.org/2000/svg" xmlns:xlink="http://www.w3.org/1999/xlink">
    <!-- Generator: Sketch 3.8.3 (29802) - http://www.bohemiancoding.com/sketch -->
    <title>Fill 211</title>
    <desc>Created with Sketch.</desc>
    <defs></defs>
    <g id="Page-1" stroke="none" stroke-width="1" fill="none" fill-rule="evenodd">
        <g id="Group" transform="translate(-261.000000, -468.000000)" fill="#444444">
            <path d="M278.8271,491.9989 C275.3421,492.0579 274.0211,489.5159 274.0211,487.7259 L274.0211,482.4979 L272.4021,482.4979 L272.4021,480.4309 C274.8291,479.5569 275.4131,477.3669 275.5501,476.1199 C275.5591,476.0339 275.6271,475.9999 275.6651,475.9999 L278.0091,475.9999 L278.0091,480.0759 L281.2101,480.0759 L281.2101,482.4979 L277.9971,482.4979 L277.9971,487.4789 C278.0081,488.1569 278.2561,489.0909 279.5371,489.0559 C279.9611,489.0449 280.5311,488.9219 280.8281,488.7799 L281.5981,491.0619 C281.3091,491.4859 280.0031,491.9789 278.8271,491.9989 M277.0001,467.9999 C268.1631,467.9999 261.0001,475.1629 261.0001,483.9999 C261.0001,492.8369 268.1631,499.9999 277.0001,499.9999 C285.8361,499.9999 293.0001,492.8369 293.0001,483.9999 C293.0001,475.1629 285.8361,467.9999 277.0001,467.9999" id="Fill-211"></path>
        </g>
    </g>
</svg>