<?xml version="1.0" encoding="UTF-8" standalone="no"?>
<svg width="32px" height="32px" viewBox="0 0 32 32" version="1.1" xmlns="http://www.w3.org/2000/svg" xmlns:xlink="http://www.w3.org/1999/xlink">
    <!-- Generator: Sketch 3.8.3 (29802) - http://www.bohemiancoding.com/sketch -->
    <title>Fill 206</title>
    <desc>Created with Sketch.</desc>
    <defs></defs>
    <g id="Page-1" stroke="none" stroke-width="1" fill="none" fill-rule="evenodd">
        <g id="Group" transform="translate(-469.000000, -416.000000)" fill="#444444">
            <path d="M489.7291,434.6785 C487.5541,437.5055 485.7131,438.9185 484.2081,438.9185 C483.2751,438.9185 482.4861,438.0585 481.8411,436.3365 C481.4111,434.7585 480.9801,433.1795 480.5501,431.6015 C480.0711,429.8805 479.5581,429.0185 479.0081,429.0185 C478.8881,429.0185 478.4701,429.2705 477.7521,429.7725 L477.0001,428.8025 C477.7901,428.1095 478.5681,427.4155 479.3351,426.7205 C480.3881,425.8115 481.1791,425.3325 481.7061,425.2845 C482.9511,425.1645 483.7171,426.0155 484.0051,427.8375 C484.3161,429.8025 484.5311,431.0255 484.6521,431.5035 C485.0111,433.1345 485.4061,433.9495 485.8371,433.9495 C486.1721,433.9495 486.6751,433.4205 487.3461,432.3615 C488.0161,431.3045 488.3741,430.4995 488.4231,429.9465 C488.5191,429.0335 488.1591,428.5765 487.3461,428.5765 C486.9631,428.5765 486.5681,428.6645 486.1611,428.8385 C486.9481,426.2635 488.4501,425.0125 490.6681,425.0835 C492.3121,425.1325 493.0871,426.1985 492.9921,428.2825 C492.9211,429.8395 491.8331,431.9715 489.7291,434.6785 M485.0001,415.9995 C476.1631,415.9995 469.0001,423.1635 469.0001,431.9995 C469.0001,440.8365 476.1631,447.9995 485.0001,447.9995 C493.8371,447.9995 501.0001,440.8365 501.0001,431.9995 C501.0001,423.1635 493.8371,415.9995 485.0001,415.9995" id="Fill-206"></path>
        </g>
    </g>
</svg>