<?xml version="1.0" encoding="UTF-8" standalone="no"?>
<svg width="32px" height="32px" viewBox="0 0 32 32" version="1.1" xmlns="http://www.w3.org/2000/svg" xmlns:xlink="http://www.w3.org/1999/xlink">
    <!-- Generator: Sketch 3.8.3 (29802) - http://www.bohemiancoding.com/sketch -->
    <title>workingnotworking</title>
    <desc>Created with Sketch.</desc>
    <defs></defs>
    <g id="Page-1" stroke="none" stroke-width="1" fill="none" fill-rule="evenodd">
        <g id="Group" transform="translate(-521.000000, -416.000000)">
            <g id="workingnotworking" transform="translate(520.999500, 416.000000)">
                <path d="M0,16 C0,24.837 7.164,32 16,32 C24.837,32 32,24.837 32,16 C32,7.164 24.837,0 16,0 C7.164,0 0,7.164 0,16 Z" id="Fill-197-Copy" fill="#444444"></path>
                <path d="M22.0642672,19.7517131 L18.3130863,16.0005322 L23.6902402,10.6212494 C23.8903599,10.4205974 23.9978711,10.1587386 23.9978711,9.87771938 C23.9978711,9.59563569 23.8903599,9.33271239 23.6902402,9.13259264 L22.8663429,8.30869536 C22.6694165,8.11017231 22.4027676,8.00053223 22.1217484,8.00053223 C21.8417936,8.00053223 21.5783381,8.11017231 21.379815,8.30869536 L16.0005322,13.6869137 L10.6212494,8.30816313 C10.4216619,8.10964008 10.1582064,8 9.87665491,8 C9.59670015,8 9.33164793,8.10964008 9.13365711,8.30816313 L8.31029206,9.13206041 C8.10910784,9.33164793 8,9.59510345 8,9.87718715 C8,10.1587386 8.10910784,10.4205974 8.31029206,10.6207172 L13.6890426,16.0005322 L9.93573282,19.7517131 L9.87665491,19.8123877 L8,24 L12.1881445,22.1228129 L16.0005322,18.3130863 L19.8145167,22.1228129 L23.9989355,24 L22.1222806,19.8123877 L22.0642672,19.7517131 L22.0642672,19.7517131 Z M22.0419134,8.97292263 C22.0738474,8.94737542 22.1009913,8.94098862 22.1217484,8.94098862 C22.14357,8.94098862 22.1749717,8.94737542 22.2026479,8.97292263 L23.0276096,9.79841661 C23.0829619,9.85163994 23.0829619,9.90166988 23.0276096,9.95648992 L22.4900539,10.4919167 L21.5086155,9.50888164 L22.0419134,8.97292263 L22.0419134,8.97292263 Z M20.9753177,10.0384539 L21.9610139,11.0225534 L21.4160069,11.5702215 L20.4303107,10.5866542 L20.9753177,10.0384539 L20.9753177,10.0384539 Z M19.9018029,11.1162265 L20.8805801,12.0981971 L17.6467301,15.334176 L16.665824,14.3532699 L19.9018029,11.1162265 L19.9018029,11.1162265 Z M8.97185816,9.95648992 C8.91757035,9.90166988 8.91757035,9.85110771 8.97185816,9.79841661 L9.79522321,8.97292263 C9.82556051,8.94737542 9.85589781,8.94045639 9.87665491,8.94045639 C9.89741202,8.94045639 9.92774932,8.94684319 9.95808662,8.97292263 L10.4913845,9.50888164 L9.50941388,10.4919167 L8.97185816,9.95648992 L8.97185816,9.95648992 Z M10.0389861,11.0236179 L11.0236179,10.0395183 L11.5686248,10.5871865 L10.5850575,11.571286 L10.0389861,11.0236179 L10.0389861,11.0236179 Z M11.2210764,21.5676934 L9.48972124,22.5102788 L10.433371,20.7794558 C10.4445479,20.7901005 10.4594505,20.798084 10.4690307,20.8065997 C10.4876588,20.8188411 10.5030936,20.8289535 10.5201251,20.836937 C10.5355598,20.8443883 10.554188,20.8513073 10.570155,20.8550329 L10.9863615,21.0152352 L11.1465638,21.4330384 C11.1545473,21.4553922 11.1619985,21.477746 11.1747721,21.4979709 L11.1864813,21.5203247 C11.1976582,21.5357594 11.2093673,21.5527909 11.2216087,21.5660967 L11.2210764,21.5676934 L11.2210764,21.5676934 L11.2210764,21.5676934 Z M12.0401836,20.9444481 L11.7644867,20.9444481 L11.5696893,20.4292462 L11.0566163,20.2360455 L11.0566163,19.9603486 L14.3553988,16.6663562 L15.3368372,17.6483268 L12.0401836,20.9444481 L12.0401836,20.9444481 Z M20.2360455,20.9444481 L19.9592841,20.9444481 L11.1172909,12.0987293 L12.0976648,11.1167587 L20.9433837,19.9603486 L20.9433837,20.2360455 L20.4271173,20.4292462 L20.2360455,20.9444481 L20.2360455,20.9444481 Z M20.7794558,21.5676934 L20.7794558,21.5655645 C20.7895682,21.5522587 20.8039385,21.5352272 20.814051,21.5197924 C20.8172444,21.5128734 20.82097,21.5059544 20.8273568,21.4974386 C20.8364048,21.4772138 20.8481139,21.45486 20.8518395,21.4325062 L21.0141707,21.0147029 L21.4319739,20.8545007 C21.4431508,20.8507751 21.4623112,20.8433238 21.4761493,20.8364048 C21.493713,20.8284213 21.5112767,20.8193733 21.5288404,20.8060675 C21.5405495,20.7975517 21.5533231,20.7895682 21.5645,20.7789236 L22.5092143,22.5097465 L20.7794558,21.5676934 L20.7794558,21.5676934 Z" id="Shape" fill="#FFFFFF"></path>
            </g>
        </g>
    </g>
</svg>